<svg width="800" height="909" viewBox="0 0 800 909" fill="none" xmlns="http://www.w3.org/2000/svg">
<path d="M451.255 2.10481C435.876 4.34226 410.711 10.2715 395.332 15.3058C379.954 20.34 356.019 31.6392 342.206 40.3652C328.393 49.1472 304.906 68.669 290.086 83.8277C275.211 98.9864 254.352 128.968 243.67 150.504C232.542 172.99 221.581 206.328 217.946 228.814C213.193 258.013 213.193 278.654 217.946 309.922C221.917 336.324 231.479 366.418 243.67 391.03C254.352 412.565 275.211 442.547 290.086 457.706C304.906 472.864 328.393 492.442 342.206 501.28C356.019 510.062 383.7 522.312 403.721 528.409C426.873 535.457 455.784 539.428 483.41 539.372C507.233 539.317 527.98 536.743 529.546 533.667C531.112 530.59 520.71 511.069 506.506 490.316C492.302 469.564 474.463 438.743 466.913 421.794C459.308 404.846 449.633 374.696 445.327 354.671C441.021 334.646 437.386 300.692 437.33 279.157C437.218 257.622 442.195 219.865 448.403 195.253C454.554 170.641 468.199 132.884 478.713 111.348C489.17 89.8128 508.296 58.3767 521.214 41.428C534.076 24.5353 542.52 9.09685 539.892 7.13908C537.264 5.23725 522.556 2.3845 507.177 0.87422C491.799 -0.691995 466.633 -0.0766996 451.255 2.10481ZM168.399 142.896C154.642 156.321 135.572 178.584 126.01 192.456C116.503 206.328 102.298 232.73 94.5812 251.189C86.8079 269.648 77.6366 299.853 74.2813 318.312C70.87 336.771 68.1857 363.229 68.2416 377.045C68.2976 390.862 72.1003 419.837 76.5741 441.372C81.1038 462.908 94.1897 499.434 105.598 522.48C119.578 550.783 138.313 576.402 162.974 601.294C183.106 621.543 215.933 647.106 235.953 658.125C255.973 669.145 286.116 682.122 303.06 686.988C320.005 691.911 351.433 697.392 372.963 699.182C398.967 701.364 426.146 699.518 454.051 693.701C477.091 688.89 516.125 674.85 540.731 662.488C565.337 650.182 594.249 631.667 605.042 621.319C615.835 610.971 630.263 595.812 637.197 587.645C644.131 579.479 648.549 570.305 646.983 567.229C645.306 563.928 626.404 568.851 600.847 579.199C565.952 593.351 547.106 597.266 504.381 599.336C466.578 601.182 439.958 599.224 412.109 592.624C390.579 587.534 355.348 574.053 333.818 562.754C311.393 550.895 280.3 527.738 261.118 508.496C241.825 489.254 218.729 458.265 206.929 435.779C195.577 414.243 182.379 381.52 177.57 363.061C172.761 344.602 168.79 308.076 168.846 281.954C168.902 255.832 171.53 224.34 174.774 212.034C178.018 199.728 186.182 176.346 192.893 160.125C201.505 139.372 203.462 128.744 199.324 124.493C195.186 120.242 186.182 125.556 168.399 142.896ZM3.87487 453.51C1.30244 455.524 -0.375236 481.367 0.0721437 510.845C0.575446 542.617 5.32887 581.492 11.704 606.384C17.6318 629.43 27.9215 660.922 34.6322 676.304C41.3429 691.687 55.2117 716.858 65.5015 732.241C75.7353 747.623 98.7753 774.696 116.726 792.428C134.622 810.104 164.372 834.66 182.827 846.966C201.281 859.272 232.71 875.493 252.73 883.101C272.75 890.652 301.662 899.602 317.041 902.958C332.419 906.314 370.167 909.055 400.925 908.999C439.567 908.999 470.66 905.363 501.585 897.253C526.191 890.82 562.708 876.836 582.673 866.264C602.637 855.636 633.506 835.611 651.178 821.739C668.849 807.922 694.685 782.08 708.498 764.404C722.367 746.728 742.275 715.851 752.677 695.882C763.134 675.913 776.78 643.134 782.987 623.165C789.138 603.14 796.017 567.9 798.254 544.854C800.435 521.753 800.603 491.547 798.589 477.731C796.241 461.621 792.102 452.559 787.069 452.559C782.763 452.559 777.674 460.111 775.717 469.34C773.816 478.57 763.358 503.741 752.453 525.277C741.604 546.812 722.199 578.08 709.393 594.693C696.587 611.362 669.744 638.212 649.78 654.321C629.815 670.487 595.814 692.582 574.284 703.434C552.754 714.285 518.809 727.542 498.789 732.912C474.463 739.512 441.189 742.813 398.128 742.98C346.176 743.148 325.765 740.687 291.876 730.227C268.78 723.067 232.486 708.02 211.124 696.777C189.593 685.422 153.803 658.852 130.819 637.149C107.779 615.446 78.5873 580.542 65.3337 558.838C52.136 537.303 36.7014 503.965 30.9973 484.723C25.2932 465.481 17.9114 449.763 14.5561 449.763C11.2566 449.763 6.44731 451.441 3.87487 453.51Z" fill="white"/>
</svg>
